<?xml version="1.0" encoding="utf-8"?>
<!-- Generator: Adobe Illustrator 25.2.1, SVG Export Plug-In . SVG Version: 6.00 Build 0)  -->
<svg version="1.1" id="Layer_1" xmlns="http://www.w3.org/2000/svg" xmlns:xlink="http://www.w3.org/1999/xlink" x="0px" y="0px"
	 viewBox="0 0 1000 1000" style="enable-background:new 0 0 1000 1000;" xml:space="preserve">
<style type="text/css">
	.st0{fill:#73BF44;}
	.st1{font-family:'MajorMonoDisplay-Regular';}
	.st2{font-size:48px;}
	.st3{letter-spacing:1;}
	.st4{fill:none;stroke:#73BF44;stroke-width:7;stroke-miterlimit:10;}
</style>
<polygon class="st0" points="472.01,413.18 472.01,357.75 276.36,357.75 276.36,593.62 472.01,593.62 472.01,538.18 472.01,482.75 
	412.23,482.75 412.23,538.18 336.14,538.18 336.14,413.18 "/>
<g>
	<polygon class="st0" points="663.86,538.18 587.77,538.18 587.77,538.18 527.99,538.18 527.99,593.62 723.64,593.62 723.64,538.18 
		723.64,482.75 663.86,482.75 	"/>
</g>
<g>
	<polygon class="st0" points="587.77,413.18 663.86,413.18 663.86,413.18 723.64,413.18 723.64,357.75 527.99,357.75 527.99,413.18 
		527.99,468.62 587.77,468.62 	"/>
</g>
<text transform="matrix(1 0 0 1 280.102 634.3618)"><tspan x="0" y="0" class="st0 st1 st2 st3">G</tspan><tspan x="36.67" y="0" class="st1 st2 st3">adget </tspan><tspan x="256.7" y="0" class="st0 st1 st2 st3">S</tspan><tspan x="293.37" y="0" class="st1 st2 st3">pace</tspan></text>
<rect x="261.74" y="343.58" class="st4" width="476.84" height="301.05"/>
</svg>
